<svg width="241" height="68" viewBox="0 0 241 68" fill="none" xmlns="http://www.w3.org/2000/svg">
<path d="M0 21.9326H15.8923H25.5432V7.02563L0 21.9326Z" fill="black"/>
<path d="M25.5435 7.02565V59.718L37.6216 0L25.5435 7.02565Z" fill="black"/>
<path d="M25.5435 21.9326H15.8926L25.5435 59.673V21.9326Z" fill="black"/>
<path d="M0 21.9326L18.3773 31.6154L15.8923 21.9326H0Z" fill="black"/>
<path d="M85.4773 48.2885C85.2816 48.5945 84.9686 48.9617 84.5381 49.3901C84.1076 49.8185 83.5206 50.3082 82.8161 50.7366C82.1117 51.165 81.2507 51.5934 80.1941 51.8994C79.1766 52.2054 78.0025 52.389 76.6719 52.389C74.1282 52.389 71.8975 51.7158 70.019 50.4918C68.1405 49.2065 66.6142 47.4316 65.4011 45.106C64.1879 42.7803 63.2878 40.0874 62.7399 36.9661C62.1528 33.8448 61.8789 30.3562 61.8789 26.6229C61.8789 22.8896 62.192 19.4011 62.8181 16.2185C63.4443 13.036 64.3444 10.2819 65.5967 7.95625C66.8099 5.63057 68.3753 3.7945 70.2147 2.50926C72.054 1.22401 74.2456 0.550781 76.7502 0.550781C77.9634 0.550781 79.0983 0.73438 80.0767 1.04039C81.0551 1.4076 81.9552 1.77482 82.6987 2.26443C83.4423 2.75405 84.0684 3.24368 84.5381 3.7333C85.0468 4.22292 85.399 4.71252 85.6338 5.01853C85.9078 5.38575 86.1817 5.87537 86.3774 6.42619C86.5731 6.97701 86.6905 7.58903 86.6905 8.20105C86.6905 9.18029 86.4557 10.1595 85.9861 11.1388C85.5164 12.118 85.0077 13.036 84.4207 13.8928C84.0293 13.2808 83.5988 12.6688 83.1292 12.0568C82.6596 11.4448 82.1117 10.894 81.5247 10.4043C80.9376 9.91472 80.2724 9.54751 79.5288 9.2415C78.7852 8.93549 77.9634 8.75187 77.0241 8.75187C75.4196 8.75187 74.0499 9.24149 72.9541 10.2819C71.8583 11.3224 70.9974 12.6076 70.3321 14.2601C69.6668 15.9125 69.1971 17.7486 68.9232 19.8295C68.6493 21.9103 68.4927 24.0524 68.4927 26.2557C68.4927 28.5814 68.6493 30.7847 68.9232 32.9267C69.1971 35.0688 69.7059 36.9049 70.4103 38.5573C71.1148 40.2098 72.0149 41.495 73.1498 42.4743C74.2847 43.4535 75.6544 43.9431 77.3372 43.9431C78.2373 43.9431 79.02 43.7595 79.7636 43.4535C80.5072 43.0863 81.1725 42.6579 81.7203 42.1683C82.3074 41.6786 82.777 41.1278 83.2075 40.6382C83.638 40.0874 83.9902 39.5978 84.2641 39.2306C84.4598 39.5978 84.6555 40.0262 84.9294 40.5158C85.2034 41.0054 85.4382 41.5562 85.6338 42.0459C85.8687 42.5967 86.0252 43.1475 86.2209 43.6983C86.3774 44.2491 86.4557 44.7388 86.4557 45.1672C86.4557 45.8404 86.3774 46.33 86.2209 46.8196C86.0643 47.248 85.7904 47.7377 85.4773 48.2885ZM109.898 42.5967C109.898 46.5136 110.25 49.3901 110.993 51.165C110.406 51.5322 109.898 51.777 109.389 51.8994C108.88 52.0218 108.371 52.1442 107.823 52.1442C106.688 52.1442 105.827 51.777 105.24 51.1038C104.653 50.4306 104.262 49.3901 104.106 48.1049C103.401 49.2677 102.501 50.247 101.327 51.0426C100.192 51.8382 98.7832 52.2054 97.1395 52.2054C96.2786 52.2054 95.4176 52.0218 94.5566 51.6546C93.6957 51.2874 92.913 50.6754 92.2085 49.8185C91.5041 48.9617 90.9562 47.8601 90.4866 46.4524C90.0561 45.0448 89.8213 43.3311 89.8213 41.3114C89.8213 38.8021 90.2126 36.7213 90.9953 35.13C91.778 33.5388 92.7564 32.3147 93.9305 31.3967C95.1045 30.4786 96.396 29.8666 97.7266 29.4994C99.0963 29.1322 100.349 28.9486 101.484 28.8262C101.875 28.765 102.227 28.765 102.618 28.765H103.636V27.4185C103.636 25.5213 103.323 24.1748 102.658 23.318C101.992 22.5224 100.936 22.094 99.4876 22.094C98.1179 22.094 96.9047 22.4612 95.8481 23.1344C94.7914 23.8076 93.7348 24.6032 92.7173 25.5213C92.2868 24.6644 91.8954 23.7464 91.6606 22.706C91.3867 21.6655 91.2693 20.9311 91.2693 20.4415C91.2693 19.7683 91.5041 19.095 92.0128 18.4218C92.5216 17.7486 93.1869 17.1978 94.0479 16.6469C94.9088 16.0961 95.8872 15.7289 97.0221 15.3617C98.1179 15.0557 99.292 14.8721 100.544 14.8721C102.266 14.8721 103.714 15.1169 104.888 15.6677C106.062 16.2185 107.041 17.0754 107.784 18.177C108.528 19.3398 109.076 20.7475 109.389 22.4612C109.702 24.1748 109.858 26.1945 109.858 28.459L109.898 42.5967ZM103.792 33.9672H103.127C102.892 33.9672 102.697 33.9672 102.462 34.0284C101.679 34.1508 100.896 34.2732 100.114 34.4568C99.3311 34.6404 98.6267 35.0076 98.0396 35.4972C97.4526 35.9868 96.9439 36.6601 96.5525 37.4557C96.1612 38.2513 95.9655 39.2918 95.9655 40.5158C95.9655 41.9234 96.2003 43.0863 96.709 44.0655C97.2178 45.0448 98.0788 45.5344 99.292 45.5344C99.879 45.5344 100.466 45.412 101.014 45.1672C101.562 44.9224 102.031 44.6163 102.462 44.1879C102.892 43.7595 103.205 43.3311 103.44 42.9027C103.675 42.4131 103.792 41.9847 103.792 41.6174V33.9672ZM121.755 19.2787C122.264 18.3606 123.047 17.3814 124.143 16.4021C125.238 15.4229 126.569 14.9333 128.213 14.9333C129.387 14.9333 130.522 15.2393 131.578 15.8513C132.635 16.4633 133.574 17.5038 134.396 18.8502C135.218 20.2579 135.883 22.0939 136.353 24.3584C136.862 26.6229 137.096 29.4382 137.096 32.8043C137.096 36.6601 136.822 39.9038 136.235 42.4131C135.648 44.9224 134.944 46.942 134.044 48.3497C133.144 49.8185 132.126 50.859 131.03 51.471C129.935 52.083 128.8 52.389 127.704 52.389C126.804 52.389 125.982 52.2054 125.317 51.8994C124.651 51.5934 124.064 51.2262 123.595 50.7978C123.125 50.4306 122.773 50.0022 122.499 49.6349C122.264 49.2677 122.069 48.9617 122.029 48.8393V67.2H115.533V16.0349C115.69 15.9737 115.885 15.9125 116.12 15.9125C116.316 15.8513 116.55 15.8513 116.785 15.7901C117.059 15.7901 117.333 15.7289 117.685 15.7289C118.742 15.7289 119.642 15.9737 120.386 16.5246C121.09 17.0754 121.56 17.9934 121.755 19.2787ZM130.365 33.0491C130.365 31.5803 130.287 30.1726 130.13 28.8874C129.974 27.6021 129.7 26.5005 129.348 25.5213C128.995 24.6032 128.487 23.8688 127.86 23.318C127.234 22.7672 126.491 22.5224 125.591 22.5224C124.26 22.5224 123.321 22.9508 122.812 23.6852C122.303 24.4808 122.029 25.3377 122.029 26.3169V42.1683C122.264 42.5967 122.734 43.0251 123.399 43.5759C124.064 44.1267 124.808 44.3715 125.669 44.3715C127.273 44.3715 128.448 43.3923 129.23 41.3726C129.974 39.4142 130.365 36.6601 130.365 33.0491ZM142.106 45.9016C141.871 44.9224 141.753 43.8819 141.675 42.7803C141.597 41.6786 141.597 40.577 141.597 39.4754V4.89614C141.832 4.83494 142.067 4.77373 142.301 4.77373C142.536 4.71253 142.771 4.71254 143.006 4.65133C143.241 4.65133 143.514 4.59013 143.749 4.59013C144.258 4.59013 144.767 4.65133 145.276 4.83493C145.784 4.95734 146.254 5.26335 146.645 5.75297C147.076 6.18138 147.389 6.7934 147.663 7.58903C147.898 8.38466 148.054 9.36389 148.054 10.5879V15.9125H154.746V23.4404H148.093V39.353C148.093 42.8415 148.993 44.5551 150.794 44.5551C151.224 44.5551 151.655 44.4327 152.046 44.2491C152.437 44.0043 152.789 43.7595 153.103 43.5147C153.416 43.2699 153.69 42.9639 153.924 42.6579C154.159 42.3519 154.316 42.1071 154.433 41.9847C154.903 43.0863 155.294 44.0043 155.529 44.8C155.764 45.5956 155.92 46.33 155.92 47.0644C155.92 47.7377 155.764 48.3497 155.412 48.9617C155.059 49.5737 154.59 50.1857 154.003 50.6754C153.416 51.2262 152.672 51.6546 151.811 51.9606C150.95 52.2666 150.011 52.4502 148.993 52.4502C147.037 52.4502 145.471 51.8382 144.375 50.6754C143.358 49.3901 142.575 47.8601 142.106 45.9016ZM171.183 44.9224C171.966 44.9224 172.67 44.8 173.296 44.4939C173.883 44.2491 174.431 43.8819 174.94 43.5147C175.41 43.1475 175.84 42.6579 176.192 42.2295C176.544 41.7399 176.858 41.3114 177.131 40.9442C177.523 41.6786 177.914 42.6579 178.345 43.8207C178.775 44.9836 178.971 45.9628 178.971 46.6972C178.971 47.7989 178.579 48.7781 177.797 49.6961C177.131 50.4918 176.192 51.165 174.94 51.777C173.727 52.3278 172.279 52.6338 170.635 52.6338C169.148 52.6338 167.661 52.3278 166.213 51.7158C164.765 51.1038 163.473 50.0633 162.338 48.5945C161.204 47.1256 160.303 45.106 159.599 42.5967C158.895 40.0874 158.542 36.9049 158.542 33.1103C158.542 29.989 158.855 27.2961 159.482 25.0317C160.108 22.7672 160.93 20.8699 161.947 19.401C162.965 17.9322 164.139 16.8306 165.469 16.0961C166.761 15.4229 168.091 15.0557 169.461 15.0557C171.222 15.0557 172.748 15.4841 174.001 16.3409C175.253 17.1978 176.231 18.3606 177.014 19.8295C177.797 21.2983 178.345 22.9508 178.697 24.8481C179.049 26.7453 179.206 28.7038 179.206 30.7847V31.8251C179.206 32.2535 179.206 32.6207 179.166 33.1103C179.166 33.5388 179.127 33.9672 179.127 34.3956C179.127 34.824 179.088 35.13 179.049 35.3748H165C165.117 38.1289 165.665 40.3934 166.643 42.2295C167.583 44.0043 169.109 44.9224 171.183 44.9224ZM173.374 29.8054C173.374 27.4185 173.061 25.4601 172.474 23.9912C171.887 22.5224 170.831 21.7267 169.304 21.7267C167.974 21.7267 166.956 22.4612 166.174 23.8688C165.391 25.2765 165 27.2349 165 29.8054H173.374ZM190.516 19.4623C190.711 19.0338 190.946 18.5442 191.259 17.9934C191.572 17.4426 191.964 16.953 192.433 16.5246C192.903 16.0961 193.412 15.7289 193.959 15.4229C194.507 15.1169 195.094 14.9945 195.76 14.9945C196.151 14.9945 196.542 15.0557 196.973 15.1169C197.403 15.2393 197.795 15.4229 198.147 15.6677C198.499 15.9125 198.812 16.2797 199.047 16.7694C199.282 17.259 199.399 17.8098 199.399 18.483C199.399 19.5847 199.243 20.8087 198.89 22.2163C198.538 23.624 198.186 24.848 197.834 25.8273C197.286 25.1541 196.738 24.6032 196.229 24.236C195.681 23.8688 195.055 23.6852 194.312 23.6852C193.333 23.6852 192.511 24.1136 191.846 25.0317C191.181 25.9497 190.829 26.9901 190.829 28.2754V52.389H184.332V15.9737C184.489 15.9125 184.685 15.8513 184.919 15.8513C185.115 15.7901 185.35 15.7901 185.585 15.7289C185.819 15.7289 186.133 15.6677 186.485 15.6677C187.502 15.6677 188.402 15.9737 189.146 16.5858C189.85 17.259 190.32 18.177 190.516 19.4623ZM208.948 19.4623C209.144 19.0338 209.379 18.5442 209.692 17.9934C210.005 17.4426 210.396 16.953 210.866 16.5246C211.335 16.0961 211.844 15.7289 212.392 15.4229C212.94 15.1169 213.527 14.9945 214.192 14.9945C214.584 14.9945 214.975 15.0557 215.405 15.1169C215.836 15.2393 216.227 15.4229 216.58 15.6677C216.932 15.9125 217.245 16.2797 217.48 16.7694C217.714 17.259 217.832 17.8098 217.832 18.483C217.832 19.5847 217.675 20.8087 217.323 22.2163C216.971 23.624 216.619 24.848 216.266 25.8273C215.719 25.1541 215.171 24.6032 214.662 24.236C214.114 23.8688 213.488 23.6852 212.744 23.6852C211.766 23.6852 210.944 24.1136 210.279 25.0317C209.613 25.9497 209.261 26.9901 209.261 28.2754V52.389H202.765V15.9737C202.921 15.9125 203.117 15.8513 203.352 15.8513C203.548 15.7901 203.782 15.7901 204.017 15.7289C204.252 15.7289 204.565 15.6677 204.917 15.6677C205.935 15.6677 206.835 15.9737 207.578 16.5858C208.283 17.259 208.753 18.177 208.948 19.4623ZM239.904 42.5967C239.904 46.5136 240.256 49.3901 241 51.165C240.413 51.5322 239.904 51.777 239.395 51.8994C238.886 52.0218 238.378 52.1442 237.83 52.1442C236.695 52.1442 235.834 51.777 235.247 51.1038C234.66 50.4306 234.269 49.3901 234.112 48.1049C233.408 49.2677 232.507 50.247 231.333 51.0426C230.198 51.8382 228.79 52.2054 227.146 52.2054C226.285 52.2054 225.424 52.0218 224.563 51.6546C223.702 51.2874 222.919 50.6754 222.215 49.8185C221.511 48.9617 220.963 47.8601 220.493 46.4524C220.063 45.0448 219.828 43.3311 219.828 41.3114C219.828 38.8021 220.219 36.7213 221.002 35.13C221.784 33.5388 222.763 32.3147 223.937 31.3967C225.111 30.4786 226.402 29.8666 227.733 29.4994C229.103 29.1322 230.355 28.9486 231.49 28.8262C231.881 28.765 232.234 28.765 232.625 28.765H233.642V27.4185C233.642 25.5213 233.329 24.1748 232.664 23.318C231.999 22.5224 230.942 22.094 229.494 22.094C228.124 22.094 226.911 22.4612 225.855 23.1344C224.798 23.8076 223.741 24.6032 222.724 25.5213C222.293 24.6644 221.902 23.7464 221.667 22.706C221.393 21.6655 221.276 20.9311 221.276 20.4415C221.276 19.7683 221.511 19.095 222.019 18.4218C222.528 17.7486 223.193 17.1978 224.054 16.6469C224.915 16.0961 225.894 15.7289 227.029 15.3617C228.124 15.0557 229.298 14.8721 230.551 14.8721C232.273 14.8721 233.721 15.1169 234.895 15.6677C236.069 16.2185 237.047 17.0754 237.791 18.177C238.534 19.3398 239.082 20.7475 239.395 22.4612C239.708 24.1748 239.865 26.1945 239.865 28.459L239.904 42.5967ZM233.799 33.9672H233.134C232.899 33.9672 232.703 33.9672 232.468 34.0284C231.686 34.1508 230.903 34.2732 230.12 34.4568C229.338 34.6404 228.633 35.0076 228.046 35.4972C227.459 35.9868 226.95 36.6601 226.559 37.4557C226.168 38.2513 225.972 39.2918 225.972 40.5158C225.972 41.9234 226.207 43.0863 226.715 44.0655C227.224 45.0448 228.085 45.5344 229.298 45.5344C229.885 45.5344 230.472 45.412 231.02 45.1672C231.568 44.9224 232.038 44.6163 232.468 44.1879C232.899 43.7595 233.212 43.3311 233.447 42.9027C233.681 42.4131 233.799 41.9847 233.799 41.6174V33.9672Z" fill="black"/>
</svg>
