<svg width="241" height="68" viewBox="0 0 241 68" fill="none" xmlns="http://www.w3.org/2000/svg">
<path d="M0.0288344 33.4944C0.0288344 29.6946 0.0572508 25.8949 0.0288344 22.0951C-0.0279984 17.9786 1.42124 14.9881 4.2913 12.9474C9.662 9.14764 15.0043 5.31267 20.3466 1.4777C23.1314 -0.492565 25.9162 -0.492565 28.701 1.4777C34.0717 5.31267 39.4424 9.18282 44.8415 13.0178C47.5979 14.9881 49.0187 17.9083 49.0187 21.884C49.0187 29.6946 49.0187 37.5053 49.0187 45.3512C49.0187 49.2565 47.5979 52.1415 44.8699 54.1118C39.4708 57.9819 34.0433 61.8521 28.6442 65.7223C25.8878 67.6925 23.1314 67.6925 20.375 65.7223C14.9759 61.8521 9.54833 57.9819 4.14921 54.1118C1.39282 52.1415 -0.0279984 49.1861 0.000417996 45.2104C0.0288344 41.3051 0.0288344 37.3998 0.0288344 33.4944Z" fill="black"/>
<path d="M38.8741 43.7329C36.6576 42.1497 34.4127 40.5664 32.1962 38.948C31.5995 38.4554 30.8322 38.4554 30.2355 38.948C28.5873 40.1794 26.8824 41.3053 25.2342 42.5367C24.9216 42.8182 24.5522 42.8885 24.1828 42.783C22.3926 41.4812 20.5455 40.1442 18.6984 38.9128C18.1017 38.5962 17.7607 37.8221 17.8459 37.0129C17.8743 34.5853 17.8743 32.1577 17.8459 29.7652C17.7891 29.1319 18.1017 28.4986 18.5848 28.2523C20.2613 27.0913 21.9095 25.8599 23.586 24.6988C24.2396 24.3118 24.6375 23.5026 24.5806 22.5878C24.5522 19.4213 24.5806 16.2197 24.5806 13.0532C24.5806 11.8569 24.1544 11.5403 23.3303 12.1032C21.1138 13.6865 18.8689 15.2697 16.6524 16.8881C16.5672 16.9233 16.4819 16.9937 16.3967 17.064C14.237 18.6121 12.1058 20.1602 9.94617 21.6731C9.40626 21.9897 9.06526 22.623 8.98001 23.3618C8.98001 23.397 8.98001 23.4674 8.95159 23.5026C8.92318 23.5378 8.95159 23.6081 8.95159 23.6433C8.95159 23.6785 8.95159 23.7489 8.95159 23.8192C8.95159 29.6948 8.95159 35.5704 8.95159 41.446C8.95159 42.0441 8.95159 42.6774 8.95159 43.2755C8.89476 44.1551 9.29259 44.9995 9.94617 45.3865C14.4644 48.6234 19.011 51.8603 23.5292 55.0971C23.9839 55.4489 24.5238 55.5545 25.0353 55.3786C25.2342 55.3082 25.4047 55.2027 25.5752 55.0971C27.7064 53.549 29.8661 52.0362 32.0257 50.4881C32.111 50.4177 32.1678 50.3826 32.2531 50.3122L38.9309 45.5273C39.7266 44.9643 39.7266 44.331 38.8741 43.7329Z" fill="white"/>
<path d="M79.9355 35.8168H84.4537C83.8001 38.9481 82.5214 41.3054 80.6743 42.9238C78.7988 44.6126 76.4687 45.457 73.6555 45.457C70.2455 45.457 67.5743 44.0848 65.642 41.3405C63.7097 38.6666 62.772 34.8316 62.772 29.8708C62.772 25.1211 63.7097 21.4268 65.5568 18.7529C67.4607 16.0086 70.1318 14.6365 73.5418 14.6365C77.1507 14.6365 79.9355 15.9734 81.8962 18.6474C82.976 20.301 83.7717 22.2361 84.2264 24.3119H77.9179C77.6906 23.7137 77.378 23.1508 77.0086 22.6582C76.2414 21.6379 75.1331 21.1102 73.6839 21.1102C72.4904 21.0398 71.2969 21.6028 70.4444 22.6582C69.3646 24.1359 68.8247 26.5988 68.8247 30.0115C68.8247 33.4243 69.3646 35.8168 70.4444 37.2593C71.2116 38.4555 72.3767 39.0536 73.9396 39.0536C74.849 39.0888 75.7583 38.8073 76.5539 38.2796C76.7528 38.2092 76.8949 38.0685 77.037 37.8926L77.5201 37.2945C77.719 36.9778 77.9748 36.6612 78.2305 36.4149C78.7988 35.9927 79.3672 35.7816 79.9355 35.8168Z" fill="black"/>
<path d="M85.4199 44.9292V30.5744C85.4199 27.6894 85.7609 25.2618 86.4429 23.2915C87.0681 21.462 88.0342 19.8084 89.2561 18.5769C90.4496 17.4511 91.8136 16.6067 93.2629 16.1141C94.7973 15.5864 96.3887 15.3401 97.98 15.3401H98.8893V23.2563H96.8149C95.0815 23.2563 93.7743 23.7841 92.9503 24.8044C92.1262 25.8247 91.7 27.4783 91.7 29.6948V44.9644L85.4199 44.9292Z" fill="black"/>
<path d="M102.527 42.2552C101.22 40.8127 100.282 38.948 99.8274 36.8721C99.2875 34.5852 99.0033 32.1928 99.0317 29.8003C99.0317 27.7597 99.2591 25.7542 99.7137 23.784C100.083 21.9545 100.822 20.2305 101.817 18.788C103.351 16.5714 105.482 15.1641 107.812 14.8474C110.256 14.4253 112.473 14.6715 114.462 15.5863C116.678 16.6418 118.497 18.7176 119.492 21.3915C120.515 23.8544 121.026 26.7042 121.026 29.9411C121.054 32.0169 120.856 34.0575 120.401 36.0629C120.031 37.611 119.492 39.0535 118.781 40.3905C117.332 42.8533 115.513 44.3662 113.297 44.9643C111.336 45.6328 109.29 45.7031 107.329 45.1402C105.312 44.5421 103.72 43.5921 102.527 42.2552ZM106.818 22.6933C105.568 24.4173 104.999 26.9505 105.113 30.3281C105.227 33.7057 105.738 36.0629 106.647 37.3999C107.017 37.998 107.642 38.4906 108.523 38.8776C109.404 39.2998 110.37 39.335 111.279 38.9831C112.217 38.6313 113.041 37.8221 113.751 36.4851C114.462 35.1482 114.86 33.002 114.917 30.0466C114.917 27.3727 114.576 25.3672 113.894 24.0303C113.212 22.6933 112.416 21.8489 111.507 21.4619C110.626 21.0749 109.688 21.0749 108.807 21.3915C108.068 21.6026 107.386 22.06 106.818 22.6933Z" fill="black"/>
<path d="M122.021 44.929V39.0182L134.865 21.4266H125.8C125.004 21.4617 124.209 21.0747 123.64 20.3711C123.044 19.7026 122.731 18.7526 122.731 17.7675V15.3047H142.338V21.6729L129.665 38.4904H142.793V44.9641L122.021 44.929Z" fill="black"/>
<path d="M159.615 6.54419H162.684C163.508 6.54419 164.304 6.96639 164.844 7.70524C165.412 8.4089 165.725 9.32366 165.753 10.3088V32.0168C165.753 37.2943 164.503 40.8478 162.031 42.7125C159.644 44.5421 156.859 45.5272 154.046 45.492C152.483 45.492 150.948 45.1754 149.471 44.5421C148.05 43.9791 146.8 42.9236 145.862 41.4811C144.128 38.7368 143.248 35.0074 143.248 30.2577C143.248 25.5783 144.128 21.8489 145.862 18.999C147.652 16.114 149.982 14.6715 152.767 14.6715C154.131 14.6363 155.495 15.0233 156.717 15.7974C157.882 16.6418 158.905 17.838 159.644 19.2453V6.54419H159.615ZM149.357 29.9058C149.357 32.8964 149.812 35.1481 150.693 36.6962C151.574 38.2443 152.881 39.0183 154.557 39.0183C156.063 39.0887 157.484 38.2091 158.337 36.6962C159.189 35.1481 159.587 32.8612 159.587 29.9058C159.587 27.2319 159.132 25.1209 158.251 23.5729C157.314 22.0952 155.893 21.286 154.387 21.3563C152.909 21.286 151.517 22.1655 150.693 23.6784C149.783 25.1561 149.329 27.2319 149.357 29.9058Z" fill="black"/>
<path d="M183.4 35.8165H187.918C187.264 38.9478 185.986 41.3051 184.139 42.9235C182.263 44.6123 179.933 45.4567 177.12 45.4567C173.71 45.4567 171.039 44.0846 169.135 41.3403C167.202 38.6664 166.265 34.8314 166.265 29.8706C166.265 25.1208 167.202 21.4266 169.049 18.7527C170.953 16.0084 173.625 14.6362 177.063 14.6362C180.672 14.6362 183.457 15.9732 185.417 18.6471C187.321 21.3914 188.287 25.2264 188.287 30.1168V31.3483C188.287 31.6297 188.259 31.876 188.202 32.1223H172.658C172.715 34.4092 173.17 36.1332 173.994 37.2239C174.761 38.4201 175.926 39.0182 177.489 39.0182C178.398 39.0534 179.308 38.7719 180.103 38.2442C180.302 38.1738 180.473 38.0331 180.587 37.8572L181.07 37.259C181.24 36.9072 181.467 36.5906 181.752 36.3795C182.235 35.9924 182.831 35.7813 183.4 35.8165ZM172.63 27.1615H181.808C181.695 25.156 181.269 23.6783 180.558 22.6932C179.791 21.6729 178.683 21.1451 177.233 21.1451C176.04 21.0748 174.846 21.6377 173.994 22.6932C173.141 23.7135 172.687 25.1912 172.63 27.1615Z" fill="black"/>
<path d="M188.714 35.1483H194.824C194.881 36.626 195.335 37.7518 196.159 38.4907C197.069 39.2295 198.262 39.6165 199.768 39.6165C200.735 39.6517 201.701 39.3703 202.553 38.8073C203.207 38.4203 203.633 37.6111 203.633 36.6963C203.633 35.3594 202.383 34.3742 199.854 33.7058C199.03 33.565 198.234 33.3187 197.438 33.0373C194.256 32.0873 192.124 30.9263 191.045 29.5893C189.851 28.2524 189.254 26.458 189.254 24.2415C189.226 21.5324 190.164 18.964 191.84 17.24C193.63 15.5512 195.989 14.6716 198.859 14.6716C201.985 14.6716 204.457 15.516 206.333 17.24C208.038 19.0343 209.061 21.6731 209.117 24.4878H205.253C204.173 24.5229 203.15 23.7841 202.638 22.5879L201.928 21.7083C201.218 21.0398 200.223 20.7231 198.973 20.7231C197.779 20.7231 196.87 20.9342 196.273 21.3916C195.733 21.8138 195.421 22.5879 195.477 23.3971C195.477 24.5933 197.04 25.5784 200.166 26.3876C200.479 26.5284 200.791 26.6339 201.104 26.7395C201.36 26.8098 201.615 26.845 201.871 26.845C204.94 27.795 207.043 28.9208 208.265 30.1874C209.402 31.5244 209.97 33.3187 209.97 35.5353C209.97 38.8073 209.004 41.3405 207.1 43.0997C205.31 44.7181 202.61 45.5273 199.03 45.5273C195.62 45.5273 193.062 44.6829 191.386 42.9589C189.652 41.2701 188.771 38.7721 188.771 35.5353L188.714 35.1483Z" fill="black"/>
<path d="M217.216 15.3399V26.2467L224.86 15.3399H232.418L223.865 26.6689L232.504 44.929H224.945L220.54 34.9018C219.631 32.8963 218.864 32.0519 218.21 32.3334C217.557 32.6149 217.216 33.0723 217.216 33.6704V44.8938H210.936V6.64966H214.175C214.999 6.64966 215.766 7.03667 216.335 7.77552C216.903 8.444 217.244 9.35877 217.244 10.3439L217.216 15.3399Z" fill="black"/>
<path d="M233.839 15.2344V10.5198H232.447V10.0976C232.447 9.78098 232.674 9.49951 232.93 9.49951H236.141V10.5198H234.777V15.2696L233.839 15.2344Z" fill="black"/>
<path d="M236.34 15.2344V10.0976C236.34 9.92171 236.397 9.78098 236.482 9.67543C236.567 9.56988 236.709 9.49951 236.823 9.49951H237.761L238.67 13.8974L239.579 9.49951H241V15.2696H240.119V10.5902L239.181 15.2344H238.187L237.221 10.5902V15.2344H236.34Z" fill="black"/>
<path d="M72.1782 61.7113C72.1782 63.1538 71.9225 64.3149 71.411 65.1593C70.8995 66.0037 70.1323 66.4259 69.1661 66.4259C68.683 66.4259 68.2568 66.3203 67.9158 66.074C67.5748 65.8278 67.2622 65.4759 67.0349 65.0186L66.8928 66.25H65.3867V52.2822H67.1201V57.6301H67.1485C67.3759 57.2079 67.66 56.9264 68.001 56.7153C68.342 56.5042 68.7114 56.3987 69.1661 56.3987C70.1607 56.3987 70.8995 56.856 71.4394 57.806C71.9509 58.7208 72.2067 59.9874 72.2067 61.5706V61.7113H72.1782ZM70.4448 61.5354C70.4448 60.5151 70.3028 59.6707 70.047 59.0726C69.7628 58.4745 69.3366 58.1578 68.7114 58.1578C68.3136 58.1578 68.001 58.2634 67.7453 58.4745C67.4895 58.6856 67.2906 59.0022 67.1201 59.3892V63.4705C67.2906 63.8575 67.4895 64.139 67.7453 64.3501C68.001 64.5612 68.342 64.6667 68.7114 64.6667C69.3366 64.6667 69.7628 64.4204 70.047 63.8927C70.3312 63.3649 70.4448 62.6613 70.4448 61.7465V61.5354Z" fill="black"/>
<path d="M78.515 64.9481C78.2592 65.4055 77.9466 65.7925 77.5772 66.0388C77.2078 66.2851 76.7816 66.4258 76.2985 66.4258C75.446 66.4258 74.7924 66.1091 74.3378 65.4407C73.8831 64.8074 73.6558 63.7519 73.6558 62.3445V56.5393H75.3892V62.3445C75.3892 63.2241 75.5028 63.8222 75.7017 64.1389C75.9291 64.4555 76.2417 64.6314 76.6963 64.6314C77.1226 64.6314 77.4636 64.5259 77.7477 64.35C78.0319 64.1741 78.2592 63.8926 78.4297 63.5408V56.5393H80.1631V66.2499H78.6286L78.515 64.9481Z" fill="black"/>
<path d="M86.3583 63.6113C86.3583 63.2594 86.2447 62.978 86.0173 62.7669C85.79 62.5558 85.3638 62.3447 84.7102 62.1688C83.7724 61.9225 83.062 61.5706 82.5789 61.1133C82.1243 60.6559 81.8685 60.0578 81.8685 59.2837C81.8685 58.4393 82.1527 57.7709 82.6926 57.2079C83.2325 56.645 83.9714 56.3635 84.8807 56.3635C85.8468 56.3635 86.6141 56.645 87.154 57.2431C87.6939 57.806 87.9781 58.5449 87.9781 59.4596H86.2447C86.2447 59.0375 86.131 58.7208 85.8753 58.4393C85.6479 58.1579 85.3069 58.0171 84.8523 58.0171C84.426 58.0171 84.1134 58.1227 83.8861 58.369C83.6588 58.6153 83.5735 58.8967 83.5735 59.2486C83.5735 59.6004 83.6872 59.8818 83.8861 60.0578C84.085 60.2689 84.5113 60.4448 85.1648 60.5855C86.1594 60.8318 86.8982 61.1836 87.3529 61.641C87.8076 62.0984 88.0349 62.6965 88.0349 63.5057C88.0349 64.3853 87.7507 65.1241 87.1824 65.6519C86.6141 66.1796 85.8468 66.4611 84.8807 66.4611C83.8577 66.4611 83.062 66.1445 82.4653 65.5112C81.897 64.8779 81.6128 64.1038 81.6128 63.2243H83.2894C83.3178 63.7872 83.4599 64.2094 83.7724 64.4557C84.085 64.7019 84.4544 64.8427 84.9091 64.8427C85.3638 64.8427 85.7048 64.7371 85.9605 64.526C86.2447 64.2798 86.3583 63.9983 86.3583 63.6113Z" fill="black"/>
<path d="M91.5015 54.1821H89.7681V52.2822H91.5015V54.1821ZM91.5015 66.25H89.7681V56.5394H91.5015V66.25Z" fill="black"/>
<path d="M95.0247 56.5394L95.1384 57.8764H95.1668C95.4225 57.3838 95.7351 56.9968 96.1045 56.7505C96.474 56.4691 96.9002 56.3635 97.4117 56.3635C98.2358 56.3635 98.8609 56.6802 99.3156 57.2783C99.7703 57.8764 99.9692 58.8264 99.9692 60.1633V66.25H98.2358V60.1633C98.2358 59.4245 98.1221 58.8967 97.8948 58.5801C97.6674 58.2986 97.298 58.1227 96.7865 58.1227C96.4455 58.1227 96.133 58.2282 95.8772 58.4042C95.6215 58.5801 95.3941 58.8615 95.2236 59.1782V66.2148H93.4902V56.5043H95.0247V56.5394Z" fill="black"/>
<path d="M105.084 66.4259C103.976 66.4259 103.095 65.9685 102.441 65.089C101.788 64.2094 101.475 63.0483 101.475 61.6058V61.254C101.475 59.8115 101.788 58.6504 102.441 57.7357C103.066 56.8209 103.89 56.3635 104.885 56.3635C105.965 56.3635 106.761 56.7505 107.3 57.5246C107.84 58.2986 108.125 59.3893 108.125 60.7262V61.9928H103.237C103.294 62.8021 103.464 63.4354 103.805 63.9279C104.146 64.4205 104.601 64.6668 105.198 64.6668C105.681 64.6668 106.079 64.5964 106.391 64.4557C106.732 64.3149 107.045 64.1038 107.357 63.8576L107.869 65.3352C107.585 65.6519 107.187 65.8982 106.732 66.1093C106.277 66.3204 105.709 66.4259 105.084 66.4259ZM104.885 58.1227C104.459 58.1227 104.089 58.3338 103.805 58.756C103.521 59.1782 103.351 59.7411 103.265 60.4448H106.391V60.2337C106.391 59.6004 106.277 59.1078 106.022 58.7208C105.766 58.2986 105.397 58.1227 104.885 58.1227Z" fill="black"/>
<path d="M113.893 63.6113C113.893 63.2594 113.78 62.978 113.552 62.7669C113.325 62.5558 112.899 62.3447 112.245 62.1688C111.308 61.9225 110.597 61.5706 110.114 61.1133C109.659 60.6559 109.404 60.0578 109.404 59.2837C109.404 58.4393 109.688 57.7709 110.228 57.2079C110.768 56.645 111.507 56.3635 112.416 56.3635C113.382 56.3635 114.149 56.645 114.689 57.2431C115.229 57.806 115.513 58.5449 115.513 59.4596H113.78C113.78 59.0375 113.666 58.7208 113.41 58.4393C113.183 58.1579 112.842 58.0171 112.387 58.0171C111.961 58.0171 111.649 58.1227 111.421 58.369C111.194 58.6153 111.109 58.8967 111.109 59.2486C111.109 59.6004 111.222 59.8818 111.421 60.0578C111.62 60.2689 112.046 60.4448 112.7 60.5855C113.695 60.8318 114.433 61.1836 114.888 61.641C115.343 62.0984 115.57 62.6965 115.57 63.5057C115.57 64.3853 115.286 65.1241 114.718 65.6519C114.149 66.1796 113.382 66.4611 112.416 66.4611C111.393 66.4611 110.597 66.1445 110 65.5112C109.432 64.8779 109.148 64.1038 109.148 63.2243H110.825C110.853 63.7872 110.995 64.2094 111.308 64.4557C111.62 64.7019 111.99 64.8427 112.444 64.8427C112.899 64.8427 113.24 64.7371 113.496 64.526C113.751 64.2798 113.893 63.9983 113.893 63.6113Z" fill="black"/>
<path d="M121.509 63.6113C121.509 63.2594 121.395 62.978 121.168 62.7669C120.94 62.5558 120.514 62.3447 119.861 62.1688C118.923 61.9225 118.212 61.5706 117.729 61.1133C117.275 60.6559 117.019 60.0578 117.019 59.2837C117.019 58.4393 117.303 57.7709 117.843 57.2079C118.383 56.645 119.122 56.3635 120.031 56.3635C120.997 56.3635 121.764 56.645 122.304 57.2431C122.844 57.806 123.128 58.5449 123.128 59.4596H121.395C121.395 59.0375 121.281 58.7208 121.026 58.4393C120.798 58.1579 120.457 58.0171 120.003 58.0171C119.576 58.0171 119.264 58.1227 119.036 58.369C118.809 58.6153 118.724 58.8967 118.724 59.2486C118.724 59.6004 118.838 59.8818 119.036 60.0578C119.235 60.2689 119.662 60.4448 120.315 60.5855C121.31 60.8318 122.049 61.1836 122.503 61.641C122.958 62.0984 123.185 62.6965 123.185 63.5057C123.185 64.3853 122.901 65.1241 122.333 65.6519C121.764 66.1796 120.997 66.4611 120.031 66.4611C119.008 66.4611 118.212 66.1445 117.616 65.5112C117.047 64.8779 116.763 64.1038 116.763 63.2243H118.44C118.468 63.7872 118.61 64.2094 118.923 64.4557C119.235 64.7019 119.605 64.8427 120.059 64.8427C120.514 64.8427 120.855 64.7371 121.111 64.526C121.395 64.2798 121.509 63.9983 121.509 63.6113Z" fill="black"/>
<path d="M132.79 63.6113C132.79 63.2594 132.677 62.978 132.449 62.7669C132.222 62.5558 131.796 62.3447 131.142 62.1688C130.205 61.9225 129.494 61.5706 129.011 61.1133C128.556 60.6559 128.301 60.0578 128.301 59.2837C128.301 58.4393 128.585 57.7709 129.125 57.2079C129.665 56.645 130.403 56.3635 131.313 56.3635C132.279 56.3635 133.046 56.645 133.586 57.2431C134.126 57.806 134.41 58.5449 134.41 59.4596H132.677C132.677 59.0375 132.563 58.7208 132.307 58.4393C132.08 58.1579 131.739 58.0171 131.284 58.0171C130.858 58.0171 130.546 58.1227 130.318 58.369C130.091 58.6153 130.006 58.8967 130.006 59.2486C130.006 59.6004 130.119 59.8818 130.318 60.0578C130.517 60.2689 130.943 60.4448 131.597 60.5855C132.592 60.8318 133.33 61.1836 133.785 61.641C134.24 62.0984 134.467 62.6965 134.467 63.5057C134.467 64.3853 134.183 65.1241 133.615 65.6519C133.046 66.1796 132.279 66.4611 131.313 66.4611C130.29 66.4611 129.494 66.1445 128.897 65.5112C128.329 64.8779 128.045 64.1038 128.045 63.2243H129.721C129.75 63.7872 129.892 64.2094 130.205 64.4557C130.517 64.7019 130.887 64.8427 131.341 64.8427C131.796 64.8427 132.137 64.7371 132.393 64.526C132.677 64.2798 132.79 63.9983 132.79 63.6113Z" fill="black"/>
<path d="M135.746 61.3244C135.746 59.8467 136.059 58.6504 136.684 57.7357C137.309 56.8209 138.19 56.3635 139.298 56.3635C140.435 56.3635 141.316 56.8209 141.941 57.7357C142.566 58.6504 142.879 59.8467 142.879 61.3244V61.5003C142.879 62.978 142.566 64.1742 141.941 65.089C141.316 66.0037 140.435 66.4259 139.327 66.4259C138.19 66.4259 137.309 65.9685 136.684 65.089C136.059 64.1742 135.746 62.978 135.746 61.5003V61.3244ZM137.508 61.5003C137.508 62.4854 137.65 63.2594 137.934 63.8224C138.218 64.3853 138.673 64.702 139.327 64.702C139.952 64.702 140.406 64.4205 140.691 63.8224C140.975 63.2243 141.145 62.4502 141.145 61.5003V61.3244C141.145 60.3744 141.003 59.6004 140.691 59.0375C140.378 58.4745 139.923 58.1579 139.298 58.1579C138.673 58.1579 138.218 58.4393 137.934 59.0375C137.65 59.6356 137.508 60.4096 137.508 61.3244V61.5003Z" fill="black"/>
<path d="M145.009 66.2499V58.1577H143.816V56.5393H145.009V55.4135C145.009 54.3228 145.237 53.5136 145.691 52.9154C146.146 52.3525 146.8 52.071 147.652 52.071C147.823 52.071 147.993 52.071 148.164 52.1062C148.334 52.1414 148.533 52.1766 148.732 52.247L148.561 53.9358C148.448 53.9006 148.334 53.9006 148.249 53.8654C148.135 53.8302 148.022 53.8302 147.879 53.8302C147.482 53.8302 147.197 53.9709 147.027 54.2172C146.856 54.4635 146.743 54.8857 146.743 55.3783V56.5041H148.306V58.1226H146.743V66.2147H145.009V66.2499Z" fill="black"/>
<path d="M151.602 54.1821V56.5394H152.995V58.1578H151.602V63.5057C151.602 63.9279 151.659 64.2093 151.773 64.3501C151.886 64.526 152.057 64.5964 152.256 64.5964C152.369 64.5964 152.483 64.5964 152.597 64.5612C152.71 64.526 152.796 64.526 152.909 64.4908L153.108 66.0741C152.938 66.1796 152.767 66.25 152.54 66.3203C152.313 66.3907 152.085 66.4259 151.858 66.4259C151.233 66.4259 150.75 66.2148 150.409 65.7574C150.068 65.3 149.897 64.5612 149.897 63.5409V58.193H148.817V56.5746H149.897V54.2173H151.602V54.1821Z" fill="black"/>
<path d="M156.546 62.9075L156.631 63.5408H156.66L156.745 62.9075L158.28 56.5393H159.558L161.093 62.9075L161.206 63.6463H161.235L161.349 62.8371L162.485 56.5393H164.162L162.031 66.2499H160.61L159.132 60.2687L158.962 59.354H158.933L158.763 60.2687L157.285 66.2499H155.864L153.733 56.5393H155.409L156.546 62.9075Z" fill="black"/>
<path d="M169.959 66.25C169.902 66.0389 169.874 65.8278 169.817 65.6519C169.789 65.4408 169.76 65.2297 169.732 65.0186C169.476 65.4408 169.163 65.7927 168.766 66.0389C168.396 66.2852 167.97 66.426 167.515 66.426C166.72 66.426 166.094 66.1797 165.668 65.6519C165.242 65.1242 165.015 64.4205 165.015 63.5057C165.015 62.5558 165.299 61.8169 165.896 61.2892C166.492 60.7615 167.316 60.5152 168.425 60.5152H169.703V59.6708C169.703 59.143 169.59 58.756 169.334 58.4745C169.078 58.1931 168.737 58.0523 168.283 58.0523C167.856 58.0523 167.544 58.1579 167.288 58.4042C167.061 58.6505 166.919 58.9319 166.919 59.3189H165.185C165.185 58.5097 165.469 57.8061 166.066 57.2079C166.663 56.6098 167.43 56.3284 168.396 56.3284C169.306 56.3284 170.044 56.6098 170.613 57.1728C171.153 57.7357 171.437 58.5801 171.437 59.6708V63.9983C171.437 64.4205 171.465 64.8075 171.494 65.1594C171.522 65.5112 171.607 65.863 171.693 66.25H169.959ZM167.913 64.6668C168.311 64.6668 168.68 64.5612 168.993 64.3501C169.306 64.139 169.561 63.8576 169.703 63.5409V61.8873H168.396C167.885 61.8873 167.487 62.028 167.203 62.3447C166.919 62.6613 166.776 63.0132 166.776 63.4706C166.776 63.8576 166.862 64.139 167.061 64.3501C167.26 64.5612 167.544 64.6668 167.913 64.6668Z" fill="black"/>
<path d="M177.233 58.5449L176.409 58.5097C176.068 58.5097 175.784 58.5801 175.557 58.756C175.33 58.9319 175.159 59.1782 175.045 59.4949V66.2149H173.312V56.5043H174.903L175.017 57.8764H175.045C175.244 57.3839 175.5 57.032 175.784 56.7506C176.097 56.4691 176.438 56.3284 176.836 56.3284C176.949 56.3284 177.063 56.3284 177.177 56.3635C177.29 56.3987 177.376 56.3987 177.461 56.4339L177.233 58.5449Z" fill="black"/>
<path d="M181.723 66.4259C180.615 66.4259 179.734 65.9685 179.08 65.089C178.427 64.2094 178.114 63.0483 178.114 61.6058V61.254C178.114 59.8115 178.427 58.6504 179.08 57.7357C179.734 56.8209 180.53 56.3635 181.524 56.3635C182.604 56.3635 183.4 56.7505 183.94 57.5246C184.48 58.2986 184.764 59.3893 184.764 60.7262V61.9928H179.876C179.933 62.8021 180.103 63.4354 180.444 63.9279C180.785 64.4205 181.24 64.6668 181.837 64.6668C182.32 64.6668 182.718 64.5964 183.03 64.4557C183.371 64.3149 183.684 64.1038 183.996 63.8576L184.508 65.3352C184.224 65.6519 183.826 65.8982 183.371 66.1093C182.888 66.3204 182.348 66.4259 181.723 66.4259ZM181.496 58.1227C181.07 58.1227 180.7 58.3338 180.416 58.756C180.132 59.1782 179.961 59.7411 179.876 60.4448H183.002V60.2337C183.002 59.6004 182.888 59.1078 182.632 58.7208C182.405 58.2986 182.036 58.1227 181.496 58.1227Z" fill="black"/>
<path d="M194.17 63.6113C194.17 63.2594 194.057 62.978 193.829 62.7669C193.602 62.5558 193.176 62.3447 192.522 62.1688C191.584 61.9225 190.874 61.5706 190.391 61.1133C189.936 60.6559 189.68 60.0578 189.68 59.2837C189.68 58.4393 189.965 57.7709 190.505 57.2079C191.044 56.645 191.783 56.3635 192.693 56.3635C193.659 56.3635 194.426 56.645 194.966 57.2431C195.506 57.806 195.79 58.5449 195.79 59.4596H194.085C194.085 59.0375 193.971 58.7208 193.716 58.4393C193.488 58.1579 193.147 58.0171 192.693 58.0171C192.266 58.0171 191.954 58.1227 191.726 58.369C191.499 58.6153 191.414 58.8967 191.414 59.2486C191.414 59.6004 191.528 59.8818 191.726 60.0578C191.925 60.2689 192.352 60.4448 193.005 60.5855C194 60.8318 194.739 61.1836 195.193 61.641C195.648 62.0984 195.875 62.6965 195.875 63.5057C195.875 64.3853 195.591 65.1241 195.023 65.6519C194.454 66.1796 193.687 66.4611 192.721 66.4611C191.698 66.4611 190.902 66.1445 190.306 65.5112C189.737 64.8779 189.453 64.1038 189.453 63.2243H191.13C191.158 63.7872 191.3 64.2094 191.613 64.4557C191.925 64.7019 192.295 64.8427 192.749 64.8427C193.204 64.8427 193.545 64.7371 193.801 64.526C194.057 64.2798 194.17 63.9983 194.17 63.6113Z" fill="black"/>
<path d="M200.762 66.4259C199.654 66.4259 198.773 65.9685 198.119 65.089C197.466 64.2094 197.153 63.0483 197.153 61.6058V61.254C197.153 59.8115 197.466 58.6504 198.119 57.7357C198.773 56.8209 199.569 56.3635 200.563 56.3635C201.643 56.3635 202.439 56.7505 202.979 57.5246C203.519 58.2986 203.803 59.3893 203.803 60.7262V61.9928H198.915C198.972 62.8021 199.142 63.4354 199.483 63.9279C199.824 64.4205 200.279 64.6668 200.876 64.6668C201.359 64.6668 201.757 64.5964 202.098 64.4557C202.439 64.3149 202.751 64.1038 203.064 63.8576L203.575 65.3352C203.291 65.6519 202.893 65.8982 202.439 66.1093C201.956 66.3204 201.416 66.4259 200.762 66.4259ZM200.563 58.1227C200.137 58.1227 199.768 58.3338 199.483 58.756C199.199 59.1782 199.029 59.7411 198.944 60.4448H202.069V60.2337C202.069 59.6004 201.956 59.1078 201.7 58.7208C201.473 58.2986 201.075 58.1227 200.563 58.1227Z" fill="black"/>
<path d="M209.884 66.25C209.828 66.0389 209.799 65.8278 209.742 65.6519C209.714 65.4408 209.685 65.2297 209.657 65.0186C209.401 65.4408 209.089 65.7927 208.691 66.0389C208.321 66.2852 207.895 66.426 207.441 66.426C206.645 66.426 206.02 66.1797 205.594 65.6519C205.167 65.1242 204.94 64.4205 204.94 63.5057C204.94 62.5558 205.224 61.8169 205.821 61.2892C206.418 60.7615 207.242 60.5152 208.35 60.5152H209.629V59.6708C209.629 59.143 209.515 58.756 209.259 58.4745C209.003 58.1931 208.662 58.0523 208.208 58.0523C207.782 58.0523 207.469 58.1579 207.213 58.4042C206.986 58.6505 206.844 58.9319 206.844 59.3189H205.11C205.11 58.5097 205.395 57.8061 205.991 57.2079C206.588 56.6098 207.355 56.3284 208.321 56.3284C209.231 56.3284 209.97 56.6098 210.538 57.1728C211.078 57.7357 211.362 58.5801 211.362 59.6708V63.9983C211.362 64.4205 211.39 64.8075 211.419 65.1594C211.447 65.5112 211.533 65.863 211.618 66.25H209.884ZM207.838 64.6668C208.236 64.6668 208.606 64.5612 208.918 64.3501C209.231 64.139 209.487 63.8576 209.629 63.5409V61.8873H208.321C207.81 61.8873 207.412 62.028 207.128 62.3447C206.844 62.6613 206.702 63.0132 206.702 63.4706C206.702 63.8576 206.787 64.139 206.986 64.3501C207.185 64.5612 207.441 64.6668 207.838 64.6668Z" fill="black"/>
<path d="M217.13 58.5449L216.306 58.5097C215.965 58.5097 215.681 58.5801 215.453 58.756C215.226 58.9319 215.056 59.1782 214.942 59.4949V66.2149H213.208V56.5043H214.8L214.913 57.8764H214.942C215.141 57.3839 215.397 57.032 215.681 56.7506C215.993 56.4691 216.334 56.3284 216.732 56.3284C216.846 56.3284 216.959 56.3284 217.073 56.3635C217.187 56.3987 217.272 56.3987 217.357 56.4339L217.13 58.5449Z" fill="black"/>
<path d="M221.478 64.7019C221.904 64.7019 222.274 64.5612 222.586 64.2445C222.87 63.9279 223.041 63.5409 223.041 63.0483H224.689C224.689 63.9983 224.377 64.8075 223.78 65.476C223.155 66.1444 222.416 66.4611 221.535 66.4611C220.37 66.4611 219.489 66.0037 218.892 65.1241C218.295 64.2094 218.011 63.0483 218.011 61.6058V61.2891C218.011 59.8466 218.295 58.6856 218.892 57.7708C219.489 56.8561 220.37 56.3987 221.535 56.3987C222.473 56.3987 223.24 56.7505 223.837 57.419C224.405 58.0875 224.717 58.9671 224.717 60.0577H223.069C223.069 59.53 222.927 59.0726 222.643 58.6856C222.359 58.2986 221.99 58.1227 221.535 58.1227C220.881 58.1227 220.398 58.4041 220.142 59.0022C219.887 59.6004 219.745 60.3392 219.745 61.254V61.5706C219.745 62.5206 219.858 63.2594 220.114 63.8223C220.341 64.3853 220.796 64.7019 221.478 64.7019Z" fill="black"/>
<path d="M227.73 57.771C228.014 57.3488 228.298 56.997 228.667 56.7507C229.037 56.5044 229.434 56.3989 229.889 56.3989C230.742 56.3989 231.367 56.7155 231.821 57.3488C232.276 57.9821 232.503 59.0024 232.503 60.3746V66.2853H230.77V60.3746C230.77 59.6005 230.656 59.0376 230.401 58.7209C230.173 58.3691 229.804 58.2284 229.292 58.2284C228.951 58.2284 228.639 58.2987 228.383 58.4747C228.127 58.6506 227.9 58.8969 227.73 59.2135V66.3205H225.996V52.3528H227.73V57.771Z" fill="black"/>
</svg>
