<svg width="241" height="68" viewBox="0 0 241 68" fill="none" xmlns="http://www.w3.org/2000/svg">
<path d="M37.814 41.5388C37.092 44.3463 35.9454 46.9132 34.4494 49.0716C32.9533 51.2299 31.1415 52.931 29.1325 54.0635V41.5388L34.0933 35.3699L29.1325 29.286V20.6699C31.1793 20.6128 33.1298 19.4674 34.5716 17.4759C36.0134 15.4843 36.8337 12.8026 36.859 9.99756C36.859 2.60509 31.7245 0.00497665 28.8101 0.00497665C28.017 -0.0260679 27.2246 0.0882383 26.4537 0.34486V0.684744C26.8381 0.684744 27.4086 0.599773 27.5946 0.599773C29.6286 0.599773 31.154 1.90833 31.154 4.42347C31.142 4.96848 31.049 5.50441 30.8807 5.99849C30.7124 6.49258 30.4723 6.93445 30.1751 7.29709C29.878 7.65974 29.53 7.93555 29.1524 8.10767C28.7748 8.27979 28.3756 8.3446 27.9791 8.29814C23.0183 8.29814 17.0653 2.72405 10.6162 2.72405C4.91123 2.72405 0.979765 8.55305 0.979765 14.467C0.979765 20.381 3.46018 22.1994 6.05222 23.5079V23.1511C5.59026 22.745 5.21719 22.1751 4.97262 21.5019C4.72805 20.8286 4.62112 20.0772 4.66319 19.3274C4.68754 18.6359 4.81442 17.9584 5.03609 17.3363C5.25775 16.7142 5.56956 16.1604 5.95251 15.7089C6.33546 15.2573 6.78151 14.9173 7.26348 14.7096C7.74545 14.502 8.25323 14.431 8.75587 14.501C14.1508 14.501 22.8446 20.6699 28.2396 20.6699H28.748V29.3709L23.7252 35.3699L28.748 41.5388V54.1824C26.6696 55.1895 24.4786 55.6899 22.2742 55.6609C13.8903 55.7119 8.55744 48.7613 8.55744 37.1883C8.54145 34.4516 8.8172 31.7265 9.37598 29.099L13.5679 26.5839V52.0752L22.0633 46.9769V20.8399L9.57441 28.5042C10.1588 26.1615 11.0769 24.0012 12.2756 22.1488C13.4742 20.2963 14.9294 18.7885 16.5568 17.7129V17.458C8.12337 19.9731 0 28.6912 0 41.7087C0 56.7486 9.26436 67.2 20.0542 67.2C31.4765 67.2 37.938 56.7656 38 41.5558L37.814 41.5388Z" fill="black"/>
<path d="M101.435 52.891V33.7895H100.008V22.4374H109.509V28.8782C111.041 24.8845 112.753 21.4857 115.141 21.4857C115.473 21.4716 115.805 21.4999 116.136 21.5707V36.0157C114.858 35.8375 113.575 36.0718 112.322 36.7125C111.834 36.9575 111.372 37.4386 110.961 38.1275C110.551 38.8164 110.202 39.699 109.934 40.7231C109.614 42.2016 109.509 43.935 109.509 48.7274V52.891H111.431V64.2091H100.008V52.891H101.435Z" fill="black"/>
<path d="M126.738 65.0757C124.169 65.0757 121.315 63.7671 119.324 59.4166C118.377 57.3937 117.621 54.8906 117.11 52.0818C116.599 49.2731 116.345 46.2261 116.366 43.1532C116.366 29.5578 120.821 21.5706 126.111 21.5706C131.882 21.5706 135.696 31.4952 135.696 43.4931C135.696 44.8866 135.661 46.1951 135.627 47.5887H124.454C124.67 52.466 125.735 54.6413 127.378 54.6413C127.914 54.6339 128.44 54.2949 128.907 53.6558C129.375 53.0168 129.768 52.0988 130.051 50.9875H135.62C134.471 60.5552 130.872 65.0757 126.738 65.0757ZM124.42 41.1479H128.596V40.1112C128.596 36.5424 128.241 32.8887 126.508 32.8887C126.084 32.8537 125.668 33.1565 125.321 33.7514C124.974 34.3463 124.717 35.2009 124.587 36.1856C124.405 37.7998 124.348 39.4828 124.42 41.1479Z" fill="black"/>
<path d="M144.558 21.5706C146.374 21.5706 147.836 22.6242 148.734 25.1393V22.4373H153.864V38.7177H148.734C148.734 34.894 148.038 32.8887 147.022 32.8887C145.741 32.8887 144.885 36.2875 144.885 41.0629C144.885 48.9822 146.917 52.8059 149.757 52.8059C151.159 52.7715 152.552 52.2449 153.892 51.2424V62.1187C151.788 64.1927 149.534 65.1988 147.265 65.0757C145.207 65.3262 143.159 64.1854 141.349 61.7788C139.951 59.748 138.8 56.8487 138.011 53.3766C137.222 49.9046 136.825 45.984 136.859 42.0146C136.859 30.1866 140.138 21.5706 144.558 21.5706Z" fill="black"/>
<path d="M162.733 65.0759C158.918 65.0759 156.565 59.6888 156.565 50.9877V33.7896H155.069V22.4375H164.619V47.5039C164.619 50.9877 165.225 52.8911 166.436 52.8911C167.508 52.8911 168.148 50.9877 168.148 47.5039V33.7896H166.547V22.4375H176.202V52.8911H177.629V64.2092H168.148V59.2809C166.867 61.779 164.905 65.0759 162.733 65.0759Z" fill="black"/>
<path d="M177.991 33.7894V22.4373H179.599V9.38574H187.652V22.4373H190.04V33.7894H187.652V52.8909H190.04V64.209H179.599V33.7894H177.991Z" fill="black"/>
<path d="M191.07 33.7894V22.4373H192.678V9.38574H200.731V22.4373H203.119V33.7894H200.731V52.8909H203.119V64.209H192.678V33.7894H191.07Z" fill="black"/>
<path d="M214.619 65.0757C212.057 65.0757 209.203 63.7671 207.205 59.4166C206.259 57.3908 205.505 54.8871 204.994 52.079C204.483 49.2709 204.228 46.2254 204.247 43.1532C204.247 29.5578 208.702 21.5706 213.992 21.5706C219.77 21.5706 223.584 31.4952 223.584 43.4931C223.584 44.8866 223.55 46.1951 223.515 47.5887H212.35C212.558 52.466 213.63 54.6413 215.273 54.6413C215.809 54.6307 216.334 54.2903 216.802 53.6516C217.269 53.0129 217.662 52.0966 217.946 50.9875H223.515C222.366 60.5552 218.795 65.0757 214.619 65.0757ZM212.308 41.1479H216.484V40.1112C216.484 36.5424 216.129 32.8887 214.396 32.8887C213.972 32.8527 213.554 33.1549 213.206 33.7497C212.858 34.3445 212.599 35.1995 212.468 36.1856C212.292 37.8026 212.24 39.4848 212.315 41.1479H212.308Z" fill="black"/>
<path d="M226.32 52.891V33.7895H224.893V22.4374H234.373V28.8782C235.905 24.8845 237.617 21.4857 240.005 21.4857C240.337 21.4716 240.669 21.4999 241 21.5707V36.0157C239.721 35.8375 238.439 36.0718 237.185 36.7125C236.699 36.9596 236.238 37.4417 235.829 38.1305C235.42 38.8193 235.072 39.7008 234.805 40.7231C234.485 42.2016 234.38 43.935 234.38 48.7274V52.891H236.301V64.2091H224.893V52.891H226.32Z" fill="black"/>
<path d="M89.3231 52.9588V33.9423H87.9309V22.7091H97.349V52.9588H98.8316V64.1919H87.8892V52.9588H89.3231ZM97.3281 3.67564V18.4436H89.3231V3.60767L97.3281 3.67564Z" fill="black"/>
<path d="M52.6396 15.8265V3.60767H64.4313V15.8265H62.8025L65.2945 40.3151L69.1369 3.60767H75.2763L79.0491 41.5047H79.1118L81.8335 15.8265H79.2858V3.60767H87.8476V15.8265H86.8731L81.3044 64.2089H73.4526L70.6683 36.8313H70.5986L67.7447 64.2089H59.8372L54.2198 15.8265H52.6396Z" fill="black"/>
<path d="M45.5327 3.948H44.8784V64.3453H45.5327V3.948Z" fill="black"/>
</svg>
