<svg width="54" height="54" viewBox="0 0 54 54" fill="none" xmlns="http://www.w3.org/2000/svg">
<path d="M35.2817 16.0401L35.6188 16.6759L36.3256 16.8109L51.0508 19.6223C52.2436 19.85 52.6855 21.3268 51.8139 22.1723L41.142 32.5253L40.542 33.1074L40.7213 33.9238L43.0148 44.3656L43.8958 50.1612C44.0871 51.4198 42.7225 52.3295 41.6344 51.6688L28.3575 43.6079L27.5694 43.1293L26.7865 43.6165L13.2713 52.0273C12.1516 52.7241 10.7422 51.7406 11.01 50.4492L14.4405 33.9065L14.6154 33.0631L13.975 32.4869L2.55348 22.2101C1.62644 21.376 2.06291 19.8407 3.2901 19.6189L18.8179 16.8136L19.5916 16.6738L19.9168 15.958L25.7259 3.17469C26.241 2.04101 27.8334 1.99243 28.4167 3.09259L35.2817 16.0401Z" stroke="#FFA534" stroke-width="3"/>
</svg>
