<svg width="62" height="62" viewBox="0 0 62 62" fill="none" xmlns="http://www.w3.org/2000/svg">
<path fill-rule="evenodd" clip-rule="evenodd" d="M32.4427 2.00673L40.1141 20.8433L59.5733 22.6762C60.4327 22.753 61.0675 23.5466 60.9942 24.4478C60.9601 24.8881 60.7599 25.267 60.4669 25.5383L45.7492 39.0142L50.1049 58.9925C50.2953 59.8731 49.7729 60.7538 48.9281 60.9586C48.4984 61.061 48.0686 60.9688 47.722 60.7333L31.0022 50.2475L14.2287 60.764C13.4865 61.23 12.5294 60.9739 12.085 60.2008C11.8701 59.8219 11.8164 59.3919 11.9043 58.9976L16.2601 39.0193L1.5326 25.5332C0.883149 24.9393 0.819669 23.905 1.38611 23.2241C1.67421 22.8759 2.06975 22.6916 2.47993 22.666L21.8903 20.8381L29.5665 1.99649C29.9035 1.16193 30.8215 0.777927 31.6175 1.13121C32.0032 1.30529 32.2913 1.62785 32.4427 2.00673ZM31.0022 6.80931L37.609 23.0244H37.6139C37.8337 23.562 38.322 23.9614 38.9177 24.0126L55.6717 25.5895L43.0537 37.1352C42.5898 37.514 42.3505 38.154 42.4921 38.794L46.2424 55.9871L31.8323 46.9502C31.5833 46.7864 31.2952 46.6993 31.0022 46.6993V6.80931Z" fill="#FFA534" stroke="#FFA534" stroke-width="0.5" stroke-miterlimit="2.6131"/>
</svg>
