<svg width="383" height="36" viewBox="0 0 383 36" fill="none" xmlns="http://www.w3.org/2000/svg">
<path d="M133.731 26.6088C131.498 21.3849 129.325 16.3201 127.152 11.2553C127.037 11.2669 126.923 11.2785 126.809 11.29C126.809 18.9793 126.809 26.6686 126.809 34.4862C124.39 34.4862 122.209 34.4862 119.851 34.4862C119.851 23.1379 119.851 11.8152 119.851 0.179945C122.492 0.179945 125.151 0.0881846 127.791 0.252861C128.359 0.288271 129.071 1.16218 129.365 1.79894C132.024 7.55871 134.602 13.3527 137.211 19.1334C137.503 19.7798 137.843 20.4061 138.349 21.4187C139.492 19.2727 140.46 17.4835 141.4 15.6809C143.725 11.2247 146.121 6.79967 148.309 2.28263C149.101 0.64887 150.054 -0.0860822 151.938 0.142983C153.138 0.288929 154.373 0.170288 155.981 0.170288C155.644 1.03963 155.446 1.69542 155.146 2.30505C150.673 11.3792 146.103 20.4105 141.764 29.5427C140.676 31.8321 138.897 30.817 137.342 31.1003C135.877 31.3674 135.322 30.5774 134.942 29.4009C134.649 28.4963 134.181 27.6437 133.731 26.6088Z" fill="white"/>
<path d="M296.45 11.7543C299.6 19.3832 302.698 26.8493 305.922 34.615C303.153 34.615 300.715 34.7498 298.314 34.5257C297.666 34.4653 296.879 33.4076 296.579 32.6531C293.586 25.1254 290.683 17.5649 287.75 10.0152C287.591 9.60682 287.393 9.21256 287.049 8.44649C286.118 10.7418 285.295 12.7217 284.508 14.7145C282.103 20.8077 279.669 26.8911 277.35 33.0143C276.876 34.2674 276.254 34.7217 274.883 34.6474C272.849 34.5373 270.804 34.6189 268.461 34.6189C270.533 29.7468 272.495 25.1542 274.44 20.5549C277.08 14.3101 279.734 8.07034 282.316 1.80317C282.802 0.622855 283.386 0.0355445 284.811 0.139027C287.016 0.299151 289.741 -0.47575 291.308 0.511874C292.848 1.48276 293.244 4.14634 294.095 6.08593C294.895 7.90835 295.634 9.75531 296.45 11.7543Z" fill="white"/>
<path d="M370.56 34.6162C365.751 34.6162 361.172 34.6162 356.448 34.6162C356.448 23.1653 356.448 11.835 356.448 0.373047C365.084 0.373047 373.694 0.373047 382.446 0.373047C382.446 2.3554 382.446 4.2883 382.446 6.42289C376.444 6.42289 370.514 6.42289 364.42 6.42289C364.42 13.7807 364.42 20.9406 364.42 28.372C370.557 28.372 376.706 28.372 383 28.372C383 30.5691 383 32.4969 383 34.6162C378.859 34.6162 374.824 34.6162 370.56 34.6162Z" fill="white"/>
<path d="M197.911 34.4651C189.031 34.6043 180.321 34.6043 171.483 34.6043C171.483 23.144 171.483 11.8116 171.483 0.360352C180.173 0.360352 188.783 0.360352 197.522 0.360352C197.522 2.37652 197.522 4.31018 197.522 6.46873C191.475 6.46873 185.54 6.46873 179.465 6.46873C179.465 13.8446 179.465 20.9971 179.465 28.4142C185.658 28.4142 191.813 28.4142 198.082 28.4142C198.082 30.559 198.082 32.4424 197.911 34.4651Z" fill="white"/>
<path d="M20.9241 6.41214C16.5755 6.41214 12.4531 6.41214 8.07399 6.41214C8.07399 15.842 8.07399 25.1134 8.07399 34.5011C5.25567 34.5011 2.69505 34.5011 0 34.5011C0 23.0836 0 11.7534 0 0.29541C8.27614 0.29541 16.4391 0.29541 24.7716 0.29541C24.7716 2.25715 24.7716 4.19338 24.7716 6.41214C23.5456 6.41214 22.348 6.41214 20.9241 6.41214Z" fill="white"/>
<path d="M45.3984 20.5136C45.3984 23.0052 45.3984 25.2766 45.3984 27.8482C50.2059 27.8482 54.9791 27.8482 59.8994 27.8482C59.8994 30.2297 59.8994 32.3131 59.8994 34.5475C52.49 34.5475 45.1038 34.5475 37.5415 34.5475C37.5415 23.1741 37.5415 11.8443 37.5415 0.37793C40.0424 0.37793 42.5377 0.37793 45.3983 0.37793C45.3983 7.00451 45.3983 13.6489 45.3984 20.5136Z" fill="white"/>
<path d="M257.346 12.1404C257.346 19.6905 257.346 27.0202 257.346 34.4844C254.588 34.4844 252.026 34.4844 249.27 34.4844C249.27 30.0682 249.27 25.688 249.27 21.0433C245.92 21.0433 242.745 21.0433 239.272 21.0433C239.539 19.1095 239.639 17.4403 240.065 15.8516C240.198 15.3596 241.201 14.7993 241.835 14.7645C244.185 14.6358 246.547 14.7132 249.124 14.7132C249.124 9.82648 249.124 5.16005 249.124 0.333008C251.904 0.333008 254.464 0.333008 257.346 0.333008C257.346 4.18719 257.346 8.0536 257.346 12.1404Z" fill="white"/>
<path d="M326.633 23.3765C328.053 27.091 329.387 30.6534 330.868 34.6079C328.325 34.6079 326.083 34.6506 323.846 34.5665C323.467 34.5523 322.919 34.0602 322.772 33.6757C318.582 22.6905 314.432 11.6908 310.282 0.691525C310.26 0.634757 310.316 0.551443 310.419 0.175456C312.506 0.175456 314.694 0.0687181 316.856 0.248749C317.412 0.295114 318.12 1.16073 318.364 1.79038C321.137 8.91923 323.832 16.0754 326.633 23.3765Z" fill="white"/>
<path d="M234.098 2.04177C234.098 12.9504 234.098 23.6427 234.098 34.4772C231.44 34.4772 228.946 34.4772 226.27 34.4772C226.27 23.1464 226.27 11.7728 226.27 0.180927C228.524 0.180927 230.729 0.0931818 232.914 0.255357C233.348 0.287584 233.705 1.27729 234.098 2.04177Z" fill="white"/>
<path d="M338.068 0.169264C340.399 0.168457 342.518 0.168457 344.956 0.168457C341.212 9.8513 337.587 19.2252 333.964 28.5946C330.652 27.4938 328.635 23.9562 329.609 21.0315C331.771 14.5408 333.985 8.06525 336.266 1.6119C336.473 1.02634 337.311 0.645802 338.068 0.169264Z" fill="white"/>
<path d="M99.7361 26.1263C102.51 28.6621 105.166 31.0889 108.244 33.9005C106.271 34.3484 104.706 34.7141 103.134 35.0509C102.842 35.1134 102.523 35.0592 102.217 35.0591C93.0986 35.0591 83.9807 35.0591 74.8627 35.0591C74.8165 34.9382 74.7703 34.8173 74.7241 34.6965C75.5674 34.4072 76.3983 34.0775 77.2561 33.8354C82.1766 32.447 87.0706 30.9535 92.0436 29.764C94.1614 29.2574 95.1906 28.2975 95.4321 26.2954C95.5515 25.306 95.9014 24.3421 96.2502 22.957C97.5586 24.1456 98.5889 25.0815 99.7361 26.1263Z" fill="white"/>
<path d="M100.914 24.1163C97.8647 21.3281 94.8732 18.7045 92.0254 15.9447C90.7627 14.721 89.6154 14.1642 87.8605 14.9646C86.7806 15.4572 85.5406 15.6277 83.9863 16.0471C85.2868 10.9199 86.5197 6.05958 87.895 0.637695C89.3127 2.10797 90.7199 3.14882 91.5617 4.51052C96.0026 11.6935 100.306 18.9547 104.637 26.1995C104.917 26.6674 105.033 27.2252 105.225 27.7411C105.047 27.8666 104.869 27.992 104.691 28.1174C103.471 26.8201 102.25 25.5228 100.914 24.1163Z" fill="white"/>
<path d="M68.5471 32.2185C69.9098 29.4958 71.1045 26.8851 72.5486 24.4079C75.6462 19.0938 78.8695 13.8471 82.0503 8.57771C82.3762 8.03776 82.7623 7.53115 83.534 7.13037C83.431 7.94622 83.4076 8.78003 83.2121 9.57497C82.0891 14.1409 81.0233 18.7235 79.7249 23.2443C79.2362 24.9459 79.639 26.0121 81.0094 27.0177C81.9059 27.6756 82.6687 28.5008 83.9144 29.6368C78.5769 31.1434 73.6594 32.5316 68.4922 33.9901C68.4922 33.3045 68.4922 32.8477 68.5471 32.2185Z" fill="white"/>
<path d="M157.01 31.485C157.01 32.5693 157.01 33.4399 157.01 34.4663C154.592 34.4663 152.352 34.4663 149.847 34.4663C149.847 29.4988 149.313 24.5256 150.018 19.7191C150.567 15.976 153.266 12.853 157.01 10.0205C157.01 17.44 157.01 24.3557 157.01 31.485Z" fill="white"/>
<path d="M91.6789 27.4948C91.2827 27.6019 91.0604 27.6562 90.8415 27.7208C86.1358 29.1098 85.7151 29.0128 82.5551 25.3368C82.1957 24.9188 82.1529 24.1952 82.1086 23.6033C82.0773 23.1853 82.2883 22.7497 82.3971 22.3233C83.3141 18.7284 85.0509 17.1118 88.85 17.1465C89.9986 17.157 91.2223 18.4732 92.256 19.3581C94.4699 21.2536 94.2104 25.5044 91.6789 27.4948Z" fill="white"/>
<path d="M184.861 20.394C184.861 18.3942 185.043 16.5142 185.239 14.4951C188.759 14.4951 192.153 14.4951 195.718 14.4951C195.718 16.4196 195.718 18.3449 195.718 20.5137C192.158 20.5137 188.601 20.5137 184.861 20.394Z" fill="white"/>
<path d="M380.816 19.5817C380.505 20.0528 380.208 20.5276 379.903 20.5324C376.498 20.5854 373.091 20.5658 369.449 20.5658C369.729 18.3876 369.969 16.5279 370.229 14.5107C373.73 14.5107 377.177 14.5107 380.827 14.5107C380.827 16.1877 380.827 17.7774 380.816 19.5817Z" fill="white"/>
<path d="M13.5904 18.252C13.3665 15.9871 14.0957 14.9423 16.503 15.1906C18.3107 15.3771 20.1573 15.2656 21.9844 15.2155C23.2699 15.1802 23.7695 15.712 23.722 16.9173C23.6677 18.2984 23.7094 19.683 23.7094 21.394C21.9111 21.394 20.1949 21.394 18.4787 21.394C16.8092 21.394 15.1398 21.394 13.0596 21.394C13.255 20.3035 13.4214 19.3752 13.5904 18.252Z" fill="white"/>
</svg>
