<svg width="383" height="36" viewBox="0 0 383 36" fill="none" xmlns="http://www.w3.org/2000/svg">
<path d="M133.731 26.609C131.498 21.3851 129.325 16.3203 127.152 11.2555C127.037 11.2671 126.923 11.2787 126.809 11.2902C126.809 18.9795 126.809 26.6688 126.809 34.4864C124.39 34.4864 122.209 34.4864 119.851 34.4864C119.851 23.1381 119.851 11.8154 119.851 0.180136C122.492 0.180136 125.151 0.0883753 127.791 0.253052C128.359 0.288461 129.071 1.16237 129.365 1.79913C132.024 7.5589 134.602 13.3529 137.211 19.1336C137.503 19.78 137.843 20.4062 138.349 21.4189C139.492 19.2729 140.46 17.4837 141.4 15.6811C143.725 11.2249 146.121 6.79986 148.309 2.28282C149.101 0.64906 150.054 -0.0858915 151.938 0.143174C153.138 0.28912 154.373 0.170478 155.981 0.170478C155.644 1.03982 155.446 1.69561 155.146 2.30524C150.673 11.3794 146.103 20.4107 141.764 29.5429C140.676 31.8322 138.897 30.8172 137.342 31.1005C135.877 31.3676 135.322 30.5776 134.942 29.4011C134.649 28.4965 134.181 27.6439 133.731 26.609Z" fill="black"/>
<path d="M296.45 11.7543C299.6 19.3832 302.698 26.8493 305.922 34.615C303.153 34.615 300.715 34.7498 298.314 34.5257C297.666 34.4653 296.879 33.4076 296.579 32.6531C293.586 25.1254 290.683 17.5649 287.75 10.0152C287.591 9.60682 287.393 9.21256 287.049 8.44649C286.118 10.7418 285.295 12.7217 284.508 14.7145C282.103 20.8077 279.669 26.8911 277.35 33.0143C276.876 34.2674 276.254 34.7217 274.883 34.6474C272.849 34.5373 270.804 34.6189 268.461 34.6189C270.533 29.7468 272.495 25.1542 274.44 20.5549C277.08 14.3101 279.734 8.07034 282.316 1.80317C282.802 0.622855 283.386 0.0355445 284.811 0.139027C287.016 0.299151 289.741 -0.47575 291.308 0.511874C292.848 1.48276 293.244 4.14634 294.095 6.08593C294.895 7.90835 295.634 9.75531 296.45 11.7543Z" fill="black"/>
<path d="M370.56 34.6163C365.751 34.6163 361.172 34.6163 356.448 34.6163C356.448 23.1655 356.448 11.8351 356.448 0.373183C365.084 0.373183 373.694 0.373183 382.446 0.373183C382.446 2.35554 382.446 4.28844 382.446 6.42303C376.444 6.42303 370.514 6.42303 364.42 6.42303C364.42 13.7809 364.42 20.9407 364.42 28.3721C370.557 28.3721 376.706 28.3721 383 28.3721C383 30.5692 383 32.497 383 34.6163C378.859 34.6163 374.824 34.6163 370.56 34.6163Z" fill="black"/>
<path d="M197.911 34.4653C189.031 34.6045 180.321 34.6045 171.483 34.6045C171.483 23.1443 171.483 11.8118 171.483 0.360577C180.173 0.360577 188.783 0.360577 197.522 0.360577C197.522 2.37674 197.522 4.3104 197.522 6.46896C191.475 6.46896 185.54 6.46896 179.465 6.46896C179.465 13.8448 179.465 20.9973 179.465 28.4144C185.658 28.4144 191.813 28.4144 198.082 28.4144C198.082 30.5592 198.082 32.4426 197.911 34.4653Z" fill="black"/>
<path d="M20.9241 6.41222C16.5755 6.41222 12.4531 6.41222 8.07399 6.41222C8.07399 15.842 8.07399 25.1135 8.07399 34.5012C5.25567 34.5012 2.69505 34.5012 0 34.5012C0 23.0836 0 11.7535 0 0.295486C8.27614 0.295486 16.4391 0.295486 24.7716 0.295486C24.7716 2.25723 24.7716 4.19345 24.7716 6.41222C23.5456 6.41222 22.348 6.41222 20.9241 6.41222Z" fill="black"/>
<path d="M45.3984 20.5137C45.3984 23.0053 45.3984 25.2767 45.3984 27.8483C50.2059 27.8483 54.9791 27.8483 59.8994 27.8483C59.8994 30.2298 59.8994 32.3132 59.8994 34.5476C52.49 34.5476 45.1038 34.5476 37.5415 34.5476C37.5415 23.1741 37.5415 11.8444 37.5415 0.378023C40.0424 0.378023 42.5377 0.378023 45.3983 0.378023C45.3983 7.0046 45.3983 13.649 45.3984 20.5137Z" fill="black"/>
<path d="M257.346 12.1402C257.346 19.6903 257.346 27.02 257.346 34.4842C254.588 34.4842 252.026 34.4842 249.27 34.4842C249.27 30.068 249.27 25.6878 249.27 21.0432C245.92 21.0432 242.745 21.0432 239.272 21.0432C239.539 19.1093 239.639 17.4401 240.065 15.8514C240.198 15.3594 241.201 14.7991 241.835 14.7644C244.185 14.6356 246.547 14.7131 249.124 14.7131C249.124 9.8263 249.124 5.15986 249.124 0.332821C251.904 0.332821 254.464 0.332821 257.346 0.332821C257.346 4.18701 257.346 8.05341 257.346 12.1402Z" fill="black"/>
<path d="M326.633 23.3764C328.053 27.0909 329.387 30.6532 330.868 34.6078C328.325 34.6078 326.083 34.6504 323.846 34.5664C323.467 34.5521 322.919 34.0601 322.772 33.6756C318.582 22.6903 314.432 11.6906 310.282 0.691371C310.26 0.634602 310.316 0.551289 310.419 0.175302C312.506 0.175302 314.694 0.0685636 316.856 0.248595C317.412 0.294959 318.12 1.16058 318.364 1.79022C321.137 8.91908 323.832 16.0753 326.633 23.3764Z" fill="black"/>
<path d="M234.098 2.04171C234.098 12.9503 234.098 23.6426 234.098 34.4771C231.44 34.4771 228.946 34.4771 226.27 34.4771C226.27 23.1463 226.27 11.7727 226.27 0.180863C228.524 0.180863 230.729 0.0931179 232.914 0.255293C233.348 0.28752 233.705 1.27723 234.098 2.04171Z" fill="black"/>
<path d="M338.068 0.169157C340.399 0.16835 342.518 0.16835 344.956 0.16835C341.212 9.8512 337.587 19.2251 333.964 28.5945C330.652 27.4937 328.635 23.956 329.609 21.0314C331.771 14.5406 333.985 8.06515 336.266 1.61179C336.473 1.02624 337.311 0.645695 338.068 0.169157Z" fill="black"/>
<path d="M99.7361 26.1264C102.51 28.6622 105.166 31.089 108.244 33.9007C106.271 34.3486 104.706 34.7143 103.134 35.051C102.842 35.1135 102.523 35.0593 102.217 35.0593C93.0986 35.0592 83.9807 35.0592 74.8627 35.0592C74.8165 34.9384 74.7703 34.8175 74.7241 34.6966C75.5674 34.4073 76.3983 34.0776 77.2561 33.8356C82.1766 32.4471 87.0706 30.9536 92.0436 29.7641C94.1614 29.2575 95.1906 28.2977 95.4321 26.2956C95.5515 25.3061 95.9014 24.3422 96.2502 22.9572C97.5586 24.1457 98.5889 25.0816 99.7361 26.1264Z" fill="black"/>
<path d="M100.914 24.1165C97.8647 21.3283 94.8732 18.7047 92.0254 15.9449C90.7627 14.7212 89.6154 14.1644 87.8605 14.9648C86.7806 15.4574 85.5406 15.6279 83.9863 16.0473C85.2868 10.9202 86.5197 6.0598 87.895 0.637911C89.3127 2.10819 90.7199 3.14903 91.5617 4.51074C96.0026 11.6937 100.306 18.9549 104.637 26.1997C104.917 26.6676 105.033 27.2254 105.225 27.7413C105.047 27.8668 104.869 27.9922 104.691 28.1176C103.471 26.8203 102.25 25.523 100.914 24.1165Z" fill="black"/>
<path d="M68.5471 32.2185C69.9098 29.4958 71.1045 26.8851 72.5486 24.4079C75.6462 19.0939 78.8695 13.8471 82.0503 8.57771C82.3762 8.03777 82.7623 7.53115 83.534 7.13038C83.431 7.94623 83.4076 8.78004 83.2121 9.57498C82.0891 14.1409 81.0233 18.7235 79.7249 23.2443C79.2362 24.9459 79.639 26.0121 81.0094 27.0177C81.9059 27.6756 82.6687 28.5008 83.9144 29.6368C78.5769 31.1434 73.6594 32.5316 68.4922 33.9901C68.4922 33.3045 68.4922 32.8477 68.5471 32.2185Z" fill="black"/>
<path d="M157.01 31.4851C157.01 32.5693 157.01 33.4399 157.01 34.4663C154.592 34.4663 152.352 34.4663 149.847 34.4663C149.847 29.4988 149.313 24.5256 150.018 19.7191C150.567 15.976 153.266 12.853 157.01 10.0205C157.01 17.44 157.01 24.3557 157.01 31.4851Z" fill="black"/>
<path d="M91.6789 27.4947C91.2827 27.6018 91.0604 27.656 90.8415 27.7207C86.1358 29.1096 85.7151 29.0127 82.5551 25.3367C82.1957 24.9187 82.1529 24.195 82.1086 23.6032C82.0773 23.1852 82.2883 22.7495 82.3971 22.3232C83.3141 18.7283 85.0509 17.1117 88.85 17.1464C89.9986 17.1569 91.2223 18.473 92.256 19.358C94.4699 21.2535 94.2104 25.5043 91.6789 27.4947Z" fill="black"/>
<path d="M184.861 20.394C184.861 18.3943 185.043 16.5143 185.239 14.4952C188.759 14.4952 192.153 14.4952 195.718 14.4952C195.718 16.4196 195.718 18.3449 195.718 20.5138C192.158 20.5138 188.601 20.5138 184.861 20.394Z" fill="black"/>
<path d="M380.816 19.5816C380.505 20.0527 380.208 20.5275 379.903 20.5323C376.498 20.5853 373.091 20.5657 369.449 20.5657C369.729 18.3875 369.969 16.5278 370.229 14.5106C373.73 14.5106 377.177 14.5106 380.827 14.5106C380.827 16.1875 380.827 17.7773 380.816 19.5816Z" fill="black"/>
<path d="M13.5904 18.252C13.3665 15.9872 14.0957 14.9424 16.503 15.1907C18.3107 15.3771 20.1573 15.2657 21.9844 15.2155C23.2699 15.1802 23.7695 15.7121 23.722 16.9173C23.6677 18.2985 23.7094 19.683 23.7094 21.394C21.9111 21.394 20.1949 21.394 18.4787 21.394C16.8092 21.394 15.1398 21.394 13.0596 21.394C13.255 20.3035 13.4214 19.3752 13.5904 18.252Z" fill="black"/>
</svg>
