<svg width="40" height="75" viewBox="0 0 40 75" fill="none" xmlns="http://www.w3.org/2000/svg">
<path d="M29.0924 51.7583H10.9077V58.5496H29.0924V51.7583Z" fill="black"/>
<path d="M29.0924 68.2117H10.9077V74.9999H29.0924V68.2117Z" fill="black"/>
<path d="M34.7042 61.5503H5.61111C5.10905 61.5503 4.70166 62.37 4.70166 63.3818C4.70166 64.3935 5.10761 65.2103 5.61111 65.2103H34.7035C35.2055 65.2103 35.6122 64.3943 35.6122 63.3818C35.6122 62.3693 35.2062 61.5503 34.7042 61.5503Z" fill="black"/>
<path d="M40 23.3647C33.8949 23.3647 23.9433 5.673 20.9094 0V21.783C22.6236 22.1963 23.9039 23.793 23.9039 25.7092C23.9039 27.9397 22.1746 29.7488 20.0409 29.7488C17.9078 29.7488 16.1786 27.9397 16.1786 25.7092C16.1786 23.8237 17.4187 22.2547 19.0905 21.8085V0C16.0567 5.673 6.10507 23.3647 0 23.3647C0 23.3647 12.7258 34.3358 10.9098 48.9765C14.544 48.9765 20 48.9765 20 48.9765C20 48.9765 25.4545 48.9765 29.0902 48.9765C27.2734 34.3358 40 23.3647 40 23.3647Z" fill="black"/>
</svg>
