<svg width="30" height="30" viewBox="0 0 30 30" fill="none" xmlns="http://www.w3.org/2000/svg">
<path d="M13.4215 15.3746L6.03994 11.1118C5.91262 11.0386 5.7615 11.0189 5.61966 11.0569C5.47782 11.0949 5.35683 11.1875 5.28316 11.3146L0.93732 18.8347C0.864202 18.9614 0.844407 19.112 0.882286 19.2534C0.920165 19.3948 1.01262 19.5153 1.13932 19.5885L8.52086 23.8513C8.64818 23.9245 8.7993 23.9443 8.94114 23.9063C9.08298 23.8683 9.20398 23.7756 9.27764 23.6485L13.6235 16.1285C13.6966 16.0017 13.7164 15.8511 13.6785 15.7097C13.6406 15.5683 13.5482 15.4478 13.4215 15.3746ZM14.3993 13.6805C14.5261 13.7537 14.6767 13.7735 14.818 13.7356C14.9593 13.6977 15.0798 13.6053 15.153 13.4786L19.4981 5.95541C19.5712 5.82807 19.591 5.67692 19.5529 5.53506C19.5149 5.39319 19.4223 5.27216 19.2952 5.19847L11.9137 0.935688C11.7869 0.862543 11.6364 0.842728 11.495 0.880599C11.3537 0.91847 11.2332 1.01093 11.16 1.13764L6.80801 8.65937C6.73484 8.7867 6.71511 8.93785 6.75312 9.07972C6.79113 9.22159 6.8838 9.34262 7.01083 9.41631L14.3993 13.6805ZM16.343 17.0617C16.2163 16.9886 16.0657 16.9688 15.9243 17.0067C15.783 17.0445 15.6625 17.137 15.5893 17.2637L11.2443 24.7869C11.1711 24.9142 11.1514 25.0653 11.1894 25.2072C11.2274 25.3491 11.3201 25.4701 11.4471 25.5438L18.8287 29.8066C18.9554 29.8797 19.106 29.8995 19.2473 29.8617C19.3887 29.8238 19.5092 29.7313 19.5824 29.6046L23.9343 22.0829C24.0075 21.9556 24.0272 21.8044 23.9892 21.6625C23.9512 21.5207 23.8585 21.3996 23.7315 21.3259L16.343 17.0617ZM29.603 11.1537L22.2215 6.89094C22.0942 6.81774 21.943 6.79799 21.8012 6.83599C21.6594 6.874 21.5384 6.96667 21.4647 7.09372L17.1189 14.6138C17.0457 14.7406 17.0259 14.8912 17.0638 15.0325C17.1017 15.1739 17.1942 15.2945 17.3209 15.3677L24.7024 19.6304C24.8297 19.7036 24.9808 19.7234 25.1227 19.6854C25.2645 19.6474 25.3855 19.5547 25.4592 19.4277L29.805 11.9076C29.8781 11.7808 29.8979 11.6302 29.8601 11.4888C29.8222 11.3475 29.7297 11.2269 29.603 11.1537Z" fill="#F77D7D"/>
</svg>
